<svg xmlns="http://www.w3.org/2000/svg" xmlns:xlink="http://www.w3.org/1999/xlink" width="500" zoomAndPan="magnify" viewBox="0 0 375 374.999991" height="500" preserveAspectRatio="xMidYMid meet" version="1.0"><defs><g/><clipPath id="522b7669d5"><path d="M 125 104.207031 L 250 104.207031 L 250 254.207031 L 125 254.207031 Z M 125 104.207031 " clip-rule="nonzero"/></clipPath><clipPath id="fd2177b9b2"><rect x="0" width="303" y="0" height="28"/></clipPath></defs><rect x="-37.5" width="450" fill="#ffffff" y="-37.499999" height="449.999989" fill-opacity="1"/><rect x="-37.5" width="450" fill="#f6f4f0" y="-37.499999" height="449.999989" fill-opacity="1"/><g clip-path="url(#522b7669d5)"><path fill="#041242" d="M 212.53125 177.601562 C 223.171875 171.902344 229.921875 164.007812 230.738281 151.628906 C 230.925781 148.820312 230.628906 146.253906 229.851562 143.949219 C 229.152344 141.855469 229.582031 141.578125 231.167969 143.117188 C 237.503906 149.257812 241.878906 156 244.296875 163.34375 C 249.605469 179.484375 248.546875 194.8125 241.15625 209.320312 C 239.175781 213.214844 237.066406 217.421875 234.019531 220.609375 C 233.671875 220.972656 233.707031 221.019531 234.121094 220.730469 C 240.304688 216.464844 245.308594 210.996094 249.019531 204.257812 C 249.144531 204.039062 249.414062 203.949219 249.648438 204.042969 C 249.84375 204.128906 249.925781 204.285156 249.878906 204.496094 C 249.226562 207.621094 248.558594 210.710938 247.796875 213.761719 C 244.378906 227.347656 235.042969 238.050781 223.246094 245.890625 C 215.621094 250.964844 206.902344 253.683594 197.078125 254 C 195.570312 254.050781 195.527344 253.8125 196.941406 253.285156 C 205.679688 250.035156 212.480469 244.109375 217.332031 235.464844 C 219.085938 232.347656 220.210938 229.128906 220.710938 225.816406 C 223.003906 210.664062 218.652344 198.082031 207.691406 188.03125 C 206.867188 187.277344 206.757812 187.351562 207.378906 188.289062 C 211.886719 195.101562 214.617188 205.175781 211.546875 212.828125 C 209.625 217.609375 206.359375 221.171875 201.835938 223.6875 C 201.703125 223.757812 201.5625 223.597656 201.660156 223.472656 C 207.546875 215.808594 207.0625 204.5625 203.3125 196.109375 C 200.578125 189.953125 196.046875 183.296875 194.527344 177.226562 C 192.359375 168.554688 193.941406 160.453125 199.285156 152.910156 C 200.523438 151.164062 201.964844 149.632812 203.609375 148.335938 C 204.542969 147.601562 204.46875 147.484375 203.386719 147.976562 C 184.921875 156.375 177.378906 176.5625 186.480469 194.804688 C 187.882812 197.613281 189.386719 200.078125 190.988281 202.199219 C 191.777344 203.246094 191.597656 203.460938 190.4375 202.839844 C 184.242188 199.503906 179.523438 194.734375 176.234375 188.566406 C 175.589844 187.351562 175.535156 186.050781 175.078125 184.796875 C 174.84375 184.152344 174.691406 184.164062 174.628906 184.859375 C 174.351562 187.789062 174.148438 190.714844 174.023438 193.613281 C 173.796875 198.984375 171.648438 203.710938 169.839844 208.6875 C 166.699219 217.359375 168.355469 224.480469 174.800781 230.039062 C 175.195312 230.378906 175.140625 230.496094 174.636719 230.378906 C 169.359375 229.152344 163.390625 226.023438 161.949219 220.644531 C 160.257812 214.34375 161.328125 208.972656 165.125 204.535156 C 165.949219 203.574219 165.832031 203.433594 164.765625 204.128906 C 153.632812 211.351562 150.722656 225.816406 157.527344 237.128906 C 162.332031 245.113281 169.234375 250.769531 178.289062 253.980469 C 178.683594 254.117188 178.667969 254.1875 178.253906 254.179688 C 167.398438 254.019531 157.734375 250.972656 149.285156 244.800781 C 140.171875 238.148438 132.464844 228.167969 128.527344 217.4375 C 125.191406 208.347656 124.3125 198.554688 125.855469 188.066406 C 127.804688 174.855469 134.292969 163.867188 145.953125 156.980469 C 147.308594 156.175781 147.582031 156.4375 146.742188 157.78125 C 142.292969 164.882812 142.910156 175.882812 146.269531 182.765625 C 148.78125 187.902344 152.371094 192.136719 157.035156 195.492188 C 157.410156 195.761719 157.472656 195.691406 157.222656 195.316406 C 147.109375 179.886719 150.042969 161.160156 163.898438 149.355469 C 166.84375 146.84375 169.859375 144.335938 172.949219 141.820312 C 179.410156 136.566406 183.273438 127.796875 177.644531 120.324219 C 172.320312 113.261719 162.554688 110.230469 154.304688 111.882812 C 153.042969 112.132812 152.945312 111.902344 154.007812 111.167969 C 160.308594 106.890625 167.570312 104.519531 175.273438 104.242188 C 195.859375 103.496094 215.394531 116.054688 221.570312 136.003906 C 224.792969 146.414062 222.851562 159.902344 218.414062 169.753906 C 217.035156 172.816406 215.03125 175.382812 212.433594 177.449219 C 211.886719 177.882812 211.925781 177.933594 212.535156 177.605469 Z M 212.53125 177.601562 " fill-opacity="1" fill-rule="nonzero"/></g><g transform="matrix(1, 0, 0, 1, 36, 272)"><g clip-path="url(#fd2177b9b2)"><g fill="#041242" fill-opacity="1"><g transform="translate(1.14778, 21.340142)"><g><path d="M 8.375 0.21875 C 6.945312 0.21875 5.671875 -0.101562 4.546875 -0.75 C 3.429688 -1.394531 2.550781 -2.328125 1.90625 -3.546875 C 1.257812 -4.773438 0.9375 -6.25 0.9375 -7.96875 C 0.9375 -9.6875 1.257812 -11.15625 1.90625 -12.375 C 2.550781 -13.601562 3.4375 -14.539062 4.5625 -15.1875 C 5.695312 -15.84375 6.96875 -16.171875 8.375 -16.171875 C 9.28125 -16.171875 10.128906 -16.039062 10.921875 -15.78125 C 11.710938 -15.53125 12.410156 -15.15625 13.015625 -14.65625 C 13.617188 -14.164062 14.113281 -13.566406 14.5 -12.859375 C 14.894531 -12.160156 15.15625 -11.359375 15.28125 -10.453125 L 11.96875 -10.453125 C 11.882812 -10.898438 11.738281 -11.296875 11.53125 -11.640625 C 11.332031 -11.992188 11.078125 -12.289062 10.765625 -12.53125 C 10.460938 -12.769531 10.113281 -12.953125 9.71875 -13.078125 C 9.320312 -13.203125 8.894531 -13.265625 8.4375 -13.265625 C 7.59375 -13.265625 6.851562 -13.054688 6.21875 -12.640625 C 5.59375 -12.222656 5.109375 -11.617188 4.765625 -10.828125 C 4.421875 -10.035156 4.25 -9.082031 4.25 -7.96875 C 4.25 -6.832031 4.421875 -5.867188 4.765625 -5.078125 C 5.109375 -4.285156 5.59375 -3.6875 6.21875 -3.28125 C 6.851562 -2.875 7.59375 -2.671875 8.4375 -2.671875 C 8.894531 -2.671875 9.316406 -2.734375 9.703125 -2.859375 C 10.097656 -2.992188 10.453125 -3.179688 10.765625 -3.421875 C 11.078125 -3.660156 11.332031 -3.953125 11.53125 -4.296875 C 11.738281 -4.648438 11.890625 -5.046875 11.984375 -5.484375 L 15.28125 -5.484375 C 15.1875 -4.710938 14.957031 -3.984375 14.59375 -3.296875 C 14.226562 -2.609375 13.75 -2 13.15625 -1.46875 C 12.5625 -0.9375 11.863281 -0.519531 11.0625 -0.21875 C 10.257812 0.0703125 9.363281 0.21875 8.375 0.21875 Z M 8.375 0.21875 "/></g></g></g><g fill="#041242" fill-opacity="1"><g transform="translate(17.29544, 21.340142)"><g><path d="M 4.671875 0.21875 C 3.921875 0.21875 3.242188 0.0859375 2.640625 -0.171875 C 2.046875 -0.429688 1.578125 -0.820312 1.234375 -1.34375 C 0.890625 -1.875 0.71875 -2.53125 0.71875 -3.3125 C 0.71875 -3.96875 0.835938 -4.515625 1.078125 -4.953125 C 1.316406 -5.398438 1.644531 -5.757812 2.0625 -6.03125 C 2.488281 -6.300781 2.972656 -6.503906 3.515625 -6.640625 C 4.054688 -6.785156 4.625 -6.890625 5.21875 -6.953125 C 5.90625 -7.015625 6.457031 -7.078125 6.875 -7.140625 C 7.300781 -7.203125 7.609375 -7.296875 7.796875 -7.421875 C 7.992188 -7.554688 8.09375 -7.75 8.09375 -8 L 8.09375 -8.0625 C 8.09375 -8.382812 8.019531 -8.660156 7.875 -8.890625 C 7.726562 -9.128906 7.515625 -9.3125 7.234375 -9.4375 C 6.953125 -9.5625 6.613281 -9.625 6.21875 -9.625 C 5.8125 -9.625 5.457031 -9.5625 5.15625 -9.4375 C 4.851562 -9.3125 4.601562 -9.140625 4.40625 -8.921875 C 4.21875 -8.710938 4.085938 -8.476562 4.015625 -8.21875 L 1.078125 -8.59375 C 1.234375 -9.3125 1.539062 -9.921875 2 -10.421875 C 2.46875 -10.929688 3.0625 -11.316406 3.78125 -11.578125 C 4.507812 -11.847656 5.332031 -11.984375 6.25 -11.984375 C 6.914062 -11.984375 7.550781 -11.90625 8.15625 -11.75 C 8.757812 -11.59375 9.296875 -11.347656 9.765625 -11.015625 C 10.242188 -10.691406 10.613281 -10.28125 10.875 -9.78125 C 11.144531 -9.28125 11.28125 -8.675781 11.28125 -7.96875 L 11.28125 0 L 8.234375 0 L 8.234375 -1.640625 L 8.140625 -1.640625 C 7.941406 -1.273438 7.679688 -0.953125 7.359375 -0.671875 C 7.046875 -0.390625 6.664062 -0.171875 6.21875 -0.015625 C 5.78125 0.140625 5.265625 0.21875 4.671875 0.21875 Z M 5.578125 -2.015625 C 6.085938 -2.015625 6.53125 -2.113281 6.90625 -2.3125 C 7.28125 -2.507812 7.570312 -2.773438 7.78125 -3.109375 C 8 -3.453125 8.109375 -3.832031 8.109375 -4.25 L 8.109375 -5.5 C 8.015625 -5.445312 7.875 -5.390625 7.6875 -5.328125 C 7.507812 -5.273438 7.304688 -5.222656 7.078125 -5.171875 C 6.859375 -5.128906 6.628906 -5.09375 6.390625 -5.0625 C 6.160156 -5.03125 5.953125 -5 5.765625 -4.96875 C 5.378906 -4.90625 5.035156 -4.8125 4.734375 -4.6875 C 4.429688 -4.5625 4.195312 -4.394531 4.03125 -4.1875 C 3.875 -3.976562 3.796875 -3.71875 3.796875 -3.40625 C 3.796875 -3.101562 3.867188 -2.847656 4.015625 -2.640625 C 4.171875 -2.429688 4.378906 -2.273438 4.640625 -2.171875 C 4.910156 -2.066406 5.222656 -2.015625 5.578125 -2.015625 Z M 5.578125 -2.015625 "/></g></g></g><g fill="#041242" fill-opacity="1"><g transform="translate(29.879694, 21.340142)"><g><path d="M 4.5 -15.953125 L 4.5 0 L 1.3125 0 L 1.3125 -15.953125 Z M 4.5 -15.953125 "/></g></g></g><g fill="#041242" fill-opacity="1"><g transform="translate(35.700982, 21.340142)"><g><path d="M 6.640625 0.234375 C 5.453125 0.234375 4.421875 -0.0195312 3.546875 -0.53125 C 2.671875 -1.039062 1.992188 -1.753906 1.515625 -2.671875 C 1.046875 -3.585938 0.8125 -4.648438 0.8125 -5.859375 C 0.8125 -7.085938 1.046875 -8.160156 1.515625 -9.078125 C 1.992188 -9.992188 2.671875 -10.707031 3.546875 -11.21875 C 4.421875 -11.726562 5.453125 -11.984375 6.640625 -11.984375 C 7.828125 -11.984375 8.859375 -11.726562 9.734375 -11.21875 C 10.609375 -10.707031 11.28125 -9.992188 11.75 -9.078125 C 12.226562 -8.160156 12.46875 -7.085938 12.46875 -5.859375 C 12.46875 -4.648438 12.226562 -3.585938 11.75 -2.671875 C 11.28125 -1.753906 10.609375 -1.039062 9.734375 -0.53125 C 8.859375 -0.0195312 7.828125 0.234375 6.640625 0.234375 Z M 6.640625 -2.296875 C 7.203125 -2.296875 7.671875 -2.445312 8.046875 -2.75 C 8.429688 -3.0625 8.722656 -3.484375 8.921875 -4.015625 C 9.128906 -4.554688 9.234375 -5.175781 9.234375 -5.875 C 9.234375 -6.582031 9.128906 -7.203125 8.921875 -7.734375 C 8.722656 -8.273438 8.429688 -8.695312 8.046875 -9 C 7.671875 -9.3125 7.203125 -9.46875 6.640625 -9.46875 C 6.085938 -9.46875 5.617188 -9.3125 5.234375 -9 C 4.847656 -8.695312 4.554688 -8.273438 4.359375 -7.734375 C 4.160156 -7.203125 4.0625 -6.582031 4.0625 -5.875 C 4.0625 -5.175781 4.160156 -4.554688 4.359375 -4.015625 C 4.554688 -3.484375 4.84375 -3.0625 5.21875 -2.75 C 5.601562 -2.445312 6.078125 -2.296875 6.640625 -2.296875 Z M 6.640625 -2.296875 "/></g></g></g><g fill="#041242" fill-opacity="1"><g transform="translate(48.980802, 21.340142)"><g><path d="M 1.3125 0 L 1.3125 -11.8125 L 4.40625 -11.8125 L 4.40625 -9.765625 L 4.515625 -9.765625 C 4.734375 -10.492188 5.09375 -11.039062 5.59375 -11.40625 C 6.09375 -11.769531 6.679688 -11.953125 7.359375 -11.953125 C 7.535156 -11.953125 7.710938 -11.941406 7.890625 -11.921875 C 8.078125 -11.910156 8.238281 -11.894531 8.375 -11.875 L 8.375 -9.046875 C 8.238281 -9.085938 8.035156 -9.117188 7.765625 -9.140625 C 7.503906 -9.171875 7.25 -9.1875 7 -9.1875 C 6.53125 -9.1875 6.101562 -9.082031 5.71875 -8.875 C 5.34375 -8.664062 5.046875 -8.367188 4.828125 -7.984375 C 4.609375 -7.609375 4.5 -7.164062 4.5 -6.65625 L 4.5 0 Z M 1.3125 0 "/></g></g></g><g fill="#041242" fill-opacity="1"><g transform="translate(57.744843, 21.340142)"><g/></g></g><g fill="#041242" fill-opacity="1"><g transform="translate(62.827777, 21.340142)"><g><path d="M 7.375 -11.8125 L 7.375 -9.359375 L 0.203125 -9.359375 L 0.203125 -11.8125 Z M 1.921875 -14.71875 L 5.109375 -14.71875 L 5.109375 -3.5 C 5.109375 -3.125 5.191406 -2.847656 5.359375 -2.671875 C 5.535156 -2.492188 5.816406 -2.40625 6.203125 -2.40625 C 6.347656 -2.40625 6.53125 -2.414062 6.75 -2.4375 C 6.976562 -2.46875 7.15625 -2.492188 7.28125 -2.515625 L 7.625 -0.078125 C 7.3125 -0.00390625 6.976562 0.046875 6.625 0.078125 C 6.269531 0.109375 5.929688 0.125 5.609375 0.125 C 4.398438 0.125 3.484375 -0.148438 2.859375 -0.703125 C 2.234375 -1.265625 1.921875 -2.085938 1.921875 -3.171875 Z M 1.921875 -14.71875 "/></g></g></g><g fill="#041242" fill-opacity="1"><g transform="translate(70.660817, 21.340142)"><g><path d="M 6.671875 0.234375 C 5.460938 0.234375 4.421875 -0.015625 3.546875 -0.515625 C 2.671875 -1.015625 1.992188 -1.71875 1.515625 -2.625 C 1.046875 -3.539062 0.8125 -4.617188 0.8125 -5.859375 C 0.8125 -7.078125 1.046875 -8.144531 1.515625 -9.0625 C 1.984375 -9.976562 2.644531 -10.691406 3.5 -11.203125 C 4.363281 -11.722656 5.367188 -11.984375 6.515625 -11.984375 C 7.304688 -11.984375 8.039062 -11.851562 8.71875 -11.59375 C 9.394531 -11.34375 9.988281 -10.960938 10.5 -10.453125 C 11.007812 -9.953125 11.40625 -9.328125 11.6875 -8.578125 C 11.96875 -7.828125 12.109375 -6.957031 12.109375 -5.96875 L 12.109375 -5.078125 L 2.09375 -5.078125 L 2.09375 -7.09375 L 10.5625 -7.09375 L 9.078125 -6.578125 C 9.078125 -7.191406 8.976562 -7.722656 8.78125 -8.171875 C 8.59375 -8.617188 8.3125 -8.960938 7.9375 -9.203125 C 7.5625 -9.453125 7.097656 -9.578125 6.546875 -9.578125 C 6.003906 -9.578125 5.539062 -9.453125 5.15625 -9.203125 C 4.769531 -8.953125 4.472656 -8.609375 4.265625 -8.171875 C 4.054688 -7.742188 3.953125 -7.242188 3.953125 -6.671875 L 3.953125 -5.265625 C 3.953125 -4.597656 4.066406 -4.03125 4.296875 -3.5625 C 4.523438 -3.101562 4.847656 -2.753906 5.265625 -2.515625 C 5.679688 -2.273438 6.171875 -2.15625 6.734375 -2.15625 C 7.109375 -2.15625 7.453125 -2.210938 7.765625 -2.328125 C 8.078125 -2.441406 8.34375 -2.601562 8.5625 -2.8125 C 8.78125 -3.019531 8.945312 -3.273438 9.0625 -3.578125 L 11.953125 -3.171875 C 11.765625 -2.484375 11.429688 -1.882812 10.953125 -1.375 C 10.472656 -0.863281 9.867188 -0.46875 9.140625 -0.1875 C 8.421875 0.09375 7.597656 0.234375 6.671875 0.234375 Z M 6.671875 0.234375 "/></g></g></g><g fill="#041242" fill-opacity="1"><g transform="translate(83.544696, 21.340142)"><g><path d="M 1.3125 0 L 1.3125 -11.8125 L 4.40625 -11.8125 L 4.40625 -9.765625 L 4.515625 -9.765625 C 4.734375 -10.492188 5.09375 -11.039062 5.59375 -11.40625 C 6.09375 -11.769531 6.679688 -11.953125 7.359375 -11.953125 C 7.535156 -11.953125 7.710938 -11.941406 7.890625 -11.921875 C 8.078125 -11.910156 8.238281 -11.894531 8.375 -11.875 L 8.375 -9.046875 C 8.238281 -9.085938 8.035156 -9.117188 7.765625 -9.140625 C 7.503906 -9.171875 7.25 -9.1875 7 -9.1875 C 6.53125 -9.1875 6.101562 -9.082031 5.71875 -8.875 C 5.34375 -8.664062 5.046875 -8.367188 4.828125 -7.984375 C 4.609375 -7.609375 4.5 -7.164062 4.5 -6.65625 L 4.5 0 Z M 1.3125 0 "/></g></g></g><g fill="#041242" fill-opacity="1"><g transform="translate(92.041192, 21.340142)"><g><path d="M 4.671875 0.21875 C 3.921875 0.21875 3.242188 0.0859375 2.640625 -0.171875 C 2.046875 -0.429688 1.578125 -0.820312 1.234375 -1.34375 C 0.890625 -1.875 0.71875 -2.53125 0.71875 -3.3125 C 0.71875 -3.96875 0.835938 -4.515625 1.078125 -4.953125 C 1.316406 -5.398438 1.644531 -5.757812 2.0625 -6.03125 C 2.488281 -6.300781 2.972656 -6.503906 3.515625 -6.640625 C 4.054688 -6.785156 4.625 -6.890625 5.21875 -6.953125 C 5.90625 -7.015625 6.457031 -7.078125 6.875 -7.140625 C 7.300781 -7.203125 7.609375 -7.296875 7.796875 -7.421875 C 7.992188 -7.554688 8.09375 -7.75 8.09375 -8 L 8.09375 -8.0625 C 8.09375 -8.382812 8.019531 -8.660156 7.875 -8.890625 C 7.726562 -9.128906 7.515625 -9.3125 7.234375 -9.4375 C 6.953125 -9.5625 6.613281 -9.625 6.21875 -9.625 C 5.8125 -9.625 5.457031 -9.5625 5.15625 -9.4375 C 4.851562 -9.3125 4.601562 -9.140625 4.40625 -8.921875 C 4.21875 -8.710938 4.085938 -8.476562 4.015625 -8.21875 L 1.078125 -8.59375 C 1.234375 -9.3125 1.539062 -9.921875 2 -10.421875 C 2.46875 -10.929688 3.0625 -11.316406 3.78125 -11.578125 C 4.507812 -11.847656 5.332031 -11.984375 6.25 -11.984375 C 6.914062 -11.984375 7.550781 -11.90625 8.15625 -11.75 C 8.757812 -11.59375 9.296875 -11.347656 9.765625 -11.015625 C 10.242188 -10.691406 10.613281 -10.28125 10.875 -9.78125 C 11.144531 -9.28125 11.28125 -8.675781 11.28125 -7.96875 L 11.28125 0 L 8.234375 0 L 8.234375 -1.640625 L 8.140625 -1.640625 C 7.941406 -1.273438 7.679688 -0.953125 7.359375 -0.671875 C 7.046875 -0.390625 6.664062 -0.171875 6.21875 -0.015625 C 5.78125 0.140625 5.265625 0.21875 4.671875 0.21875 Z M 5.578125 -2.015625 C 6.085938 -2.015625 6.53125 -2.113281 6.90625 -2.3125 C 7.28125 -2.507812 7.570312 -2.773438 7.78125 -3.109375 C 8 -3.453125 8.109375 -3.832031 8.109375 -4.25 L 8.109375 -5.5 C 8.015625 -5.445312 7.875 -5.390625 7.6875 -5.328125 C 7.507812 -5.273438 7.304688 -5.222656 7.078125 -5.171875 C 6.859375 -5.128906 6.628906 -5.09375 6.390625 -5.0625 C 6.160156 -5.03125 5.953125 -5 5.765625 -4.96875 C 5.378906 -4.90625 5.035156 -4.8125 4.734375 -4.6875 C 4.429688 -4.5625 4.195312 -4.394531 4.03125 -4.1875 C 3.875 -3.976562 3.796875 -3.71875 3.796875 -3.40625 C 3.796875 -3.101562 3.867188 -2.847656 4.015625 -2.640625 C 4.171875 -2.429688 4.378906 -2.273438 4.640625 -2.171875 C 4.910156 -2.066406 5.222656 -2.015625 5.578125 -2.015625 Z M 5.578125 -2.015625 "/></g></g></g><g fill="#041242" fill-opacity="1"><g transform="translate(104.625446, 21.340142)"><g><path d="M 1.3125 4.46875 L 1.3125 -11.8125 L 4.453125 -11.8125 L 4.453125 -9.90625 L 4.59375 -9.90625 C 4.757812 -10.25 4.984375 -10.578125 5.265625 -10.890625 C 5.546875 -11.210938 5.910156 -11.472656 6.359375 -11.671875 C 6.804688 -11.878906 7.347656 -11.984375 7.984375 -11.984375 C 8.890625 -11.984375 9.707031 -11.75 10.4375 -11.28125 C 11.164062 -10.820312 11.75 -10.140625 12.1875 -9.234375 C 12.625 -8.328125 12.84375 -7.210938 12.84375 -5.890625 C 12.84375 -4.597656 12.628906 -3.5 12.203125 -2.59375 C 11.785156 -1.6875 11.207031 -0.992188 10.46875 -0.515625 C 9.726562 -0.0351562 8.894531 0.203125 7.96875 0.203125 C 7.351562 0.203125 6.820312 0.101562 6.375 -0.09375 C 5.9375 -0.300781 5.570312 -0.5625 5.28125 -0.875 C 4.988281 -1.1875 4.757812 -1.515625 4.59375 -1.859375 L 4.5 -1.859375 L 4.5 4.46875 Z M 7.015625 -2.359375 C 7.566406 -2.359375 8.03125 -2.503906 8.40625 -2.796875 C 8.789062 -3.097656 9.078125 -3.515625 9.265625 -4.046875 C 9.460938 -4.578125 9.5625 -5.195312 9.5625 -5.90625 C 9.5625 -6.601562 9.460938 -7.21875 9.265625 -7.75 C 9.078125 -8.28125 8.789062 -8.691406 8.40625 -8.984375 C 8.03125 -9.273438 7.566406 -9.421875 7.015625 -9.421875 C 6.472656 -9.421875 6.003906 -9.273438 5.609375 -8.984375 C 5.222656 -8.691406 4.925781 -8.285156 4.71875 -7.765625 C 4.519531 -7.242188 4.421875 -6.625 4.421875 -5.90625 C 4.421875 -5.195312 4.523438 -4.578125 4.734375 -4.046875 C 4.941406 -3.515625 5.238281 -3.097656 5.625 -2.796875 C 6.007812 -2.503906 6.472656 -2.359375 7.015625 -2.359375 Z M 7.015625 -2.359375 "/></g></g></g><g fill="#041242" fill-opacity="1"><g transform="translate(118.279789, 21.340142)"><g><path d="M 6.671875 0.234375 C 5.460938 0.234375 4.421875 -0.015625 3.546875 -0.515625 C 2.671875 -1.015625 1.992188 -1.71875 1.515625 -2.625 C 1.046875 -3.539062 0.8125 -4.617188 0.8125 -5.859375 C 0.8125 -7.078125 1.046875 -8.144531 1.515625 -9.0625 C 1.984375 -9.976562 2.644531 -10.691406 3.5 -11.203125 C 4.363281 -11.722656 5.367188 -11.984375 6.515625 -11.984375 C 7.304688 -11.984375 8.039062 -11.851562 8.71875 -11.59375 C 9.394531 -11.34375 9.988281 -10.960938 10.5 -10.453125 C 11.007812 -9.953125 11.40625 -9.328125 11.6875 -8.578125 C 11.96875 -7.828125 12.109375 -6.957031 12.109375 -5.96875 L 12.109375 -5.078125 L 2.09375 -5.078125 L 2.09375 -7.09375 L 10.5625 -7.09375 L 9.078125 -6.578125 C 9.078125 -7.191406 8.976562 -7.722656 8.78125 -8.171875 C 8.59375 -8.617188 8.3125 -8.960938 7.9375 -9.203125 C 7.5625 -9.453125 7.097656 -9.578125 6.546875 -9.578125 C 6.003906 -9.578125 5.539062 -9.453125 5.15625 -9.203125 C 4.769531 -8.953125 4.472656 -8.609375 4.265625 -8.171875 C 4.054688 -7.742188 3.953125 -7.242188 3.953125 -6.671875 L 3.953125 -5.265625 C 3.953125 -4.597656 4.066406 -4.03125 4.296875 -3.5625 C 4.523438 -3.101562 4.847656 -2.753906 5.265625 -2.515625 C 5.679688 -2.273438 6.171875 -2.15625 6.734375 -2.15625 C 7.109375 -2.15625 7.453125 -2.210938 7.765625 -2.328125 C 8.078125 -2.441406 8.34375 -2.601562 8.5625 -2.8125 C 8.78125 -3.019531 8.945312 -3.273438 9.0625 -3.578125 L 11.953125 -3.171875 C 11.765625 -2.484375 11.429688 -1.882812 10.953125 -1.375 C 10.472656 -0.863281 9.867188 -0.46875 9.140625 -0.1875 C 8.421875 0.09375 7.597656 0.234375 6.671875 0.234375 Z M 5.28125 -13.3125 L 6.859375 -16.640625 L 9.859375 -16.640625 L 7.53125 -13.3125 Z M 5.28125 -13.3125 "/></g></g></g><g fill="#041242" fill-opacity="1"><g transform="translate(131.163668, 21.340142)"><g><path d="M 5.390625 0.171875 C 4.566406 0.171875 3.847656 -0.00390625 3.234375 -0.359375 C 2.628906 -0.722656 2.15625 -1.238281 1.8125 -1.90625 C 1.476562 -2.582031 1.3125 -3.390625 1.3125 -4.328125 L 1.3125 -11.8125 L 4.5 -11.8125 L 4.5 -4.890625 C 4.5 -4.140625 4.691406 -3.554688 5.078125 -3.140625 C 5.460938 -2.734375 5.988281 -2.53125 6.65625 -2.53125 C 7.101562 -2.53125 7.5 -2.625 7.84375 -2.8125 C 8.195312 -3.007812 8.46875 -3.296875 8.65625 -3.671875 C 8.851562 -4.046875 8.953125 -4.5 8.953125 -5.03125 L 8.953125 -11.8125 L 12.15625 -11.8125 L 12.15625 0 L 9.109375 0 L 9.0625 -2.96875 L 9.328125 -2.96875 C 9.003906 -1.976562 8.519531 -1.207031 7.875 -0.65625 C 7.226562 -0.101562 6.398438 0.171875 5.390625 0.171875 Z M 5.390625 0.171875 "/></g></g></g><g fill="#041242" fill-opacity="1"><g transform="translate(144.625396, 21.340142)"><g><path d="M 7.375 -11.8125 L 7.375 -9.359375 L 0.203125 -9.359375 L 0.203125 -11.8125 Z M 1.921875 -14.71875 L 5.109375 -14.71875 L 5.109375 -3.5 C 5.109375 -3.125 5.191406 -2.847656 5.359375 -2.671875 C 5.535156 -2.492188 5.816406 -2.40625 6.203125 -2.40625 C 6.347656 -2.40625 6.53125 -2.414062 6.75 -2.4375 C 6.976562 -2.46875 7.15625 -2.492188 7.28125 -2.515625 L 7.625 -0.078125 C 7.3125 -0.00390625 6.976562 0.046875 6.625 0.078125 C 6.269531 0.109375 5.929688 0.125 5.609375 0.125 C 4.398438 0.125 3.484375 -0.148438 2.859375 -0.703125 C 2.234375 -1.265625 1.921875 -2.085938 1.921875 -3.171875 Z M 1.921875 -14.71875 "/></g></g></g><g fill="#041242" fill-opacity="1"><g transform="translate(152.661776, 21.340142)"><g><path d="M 1.3125 0 L 1.3125 -11.8125 L 4.5 -11.8125 L 4.5 0 Z M 2.90625 -13.34375 C 2.414062 -13.34375 1.992188 -13.503906 1.640625 -13.828125 C 1.296875 -14.148438 1.125 -14.539062 1.125 -15 C 1.125 -15.46875 1.296875 -15.863281 1.640625 -16.1875 C 1.992188 -16.507812 2.414062 -16.671875 2.90625 -16.671875 C 3.394531 -16.671875 3.8125 -16.507812 4.15625 -16.1875 C 4.5 -15.863281 4.671875 -15.46875 4.671875 -15 C 4.671875 -14.539062 4.5 -14.148438 4.15625 -13.828125 C 3.8125 -13.503906 3.394531 -13.34375 2.90625 -13.34375 Z M 2.90625 -13.34375 "/></g></g></g><g fill="#041242" fill-opacity="1"><g transform="translate(158.483064, 21.340142)"><g><path d="M 6.625 0.234375 C 5.4375 0.234375 4.40625 -0.0195312 3.53125 -0.53125 C 2.664062 -1.039062 1.992188 -1.753906 1.515625 -2.671875 C 1.046875 -3.585938 0.8125 -4.648438 0.8125 -5.859375 C 0.8125 -7.085938 1.046875 -8.160156 1.515625 -9.078125 C 1.992188 -9.992188 2.664062 -10.707031 3.53125 -11.21875 C 4.40625 -11.726562 5.4375 -11.984375 6.625 -11.984375 C 7.34375 -11.984375 8.003906 -11.890625 8.609375 -11.703125 C 9.210938 -11.515625 9.742188 -11.238281 10.203125 -10.875 C 10.671875 -10.519531 11.050781 -10.09375 11.34375 -9.59375 C 11.644531 -9.09375 11.847656 -8.53125 11.953125 -7.90625 L 8.953125 -7.46875 C 8.890625 -7.78125 8.789062 -8.054688 8.65625 -8.296875 C 8.53125 -8.535156 8.367188 -8.742188 8.171875 -8.921875 C 7.984375 -9.097656 7.757812 -9.234375 7.5 -9.328125 C 7.25 -9.421875 6.96875 -9.46875 6.65625 -9.46875 C 6.09375 -9.46875 5.617188 -9.316406 5.234375 -9.015625 C 4.859375 -8.710938 4.566406 -8.289062 4.359375 -7.75 C 4.160156 -7.21875 4.0625 -6.59375 4.0625 -5.875 C 4.0625 -5.164062 4.160156 -4.539062 4.359375 -4 C 4.566406 -3.46875 4.859375 -3.050781 5.234375 -2.75 C 5.617188 -2.445312 6.09375 -2.296875 6.65625 -2.296875 C 6.96875 -2.296875 7.25 -2.34375 7.5 -2.4375 C 7.757812 -2.53125 7.988281 -2.664062 8.1875 -2.84375 C 8.382812 -3.019531 8.546875 -3.234375 8.671875 -3.484375 C 8.804688 -3.742188 8.898438 -4.035156 8.953125 -4.359375 L 11.953125 -3.921875 C 11.859375 -3.285156 11.660156 -2.710938 11.359375 -2.203125 C 11.066406 -1.691406 10.6875 -1.253906 10.21875 -0.890625 C 9.757812 -0.523438 9.222656 -0.242188 8.609375 -0.046875 C 8.003906 0.140625 7.34375 0.234375 6.625 0.234375 Z M 6.625 0.234375 "/></g></g></g><g fill="#041242" fill-opacity="1"><g transform="translate(171.21713, 21.340142)"><g><path d="M 6.640625 0.234375 C 5.453125 0.234375 4.421875 -0.0195312 3.546875 -0.53125 C 2.671875 -1.039062 1.992188 -1.753906 1.515625 -2.671875 C 1.046875 -3.585938 0.8125 -4.648438 0.8125 -5.859375 C 0.8125 -7.085938 1.046875 -8.160156 1.515625 -9.078125 C 1.992188 -9.992188 2.671875 -10.707031 3.546875 -11.21875 C 4.421875 -11.726562 5.453125 -11.984375 6.640625 -11.984375 C 7.828125 -11.984375 8.859375 -11.726562 9.734375 -11.21875 C 10.609375 -10.707031 11.28125 -9.992188 11.75 -9.078125 C 12.226562 -8.160156 12.46875 -7.085938 12.46875 -5.859375 C 12.46875 -4.648438 12.226562 -3.585938 11.75 -2.671875 C 11.28125 -1.753906 10.609375 -1.039062 9.734375 -0.53125 C 8.859375 -0.0195312 7.828125 0.234375 6.640625 0.234375 Z M 6.640625 -2.296875 C 7.203125 -2.296875 7.671875 -2.445312 8.046875 -2.75 C 8.429688 -3.0625 8.722656 -3.484375 8.921875 -4.015625 C 9.128906 -4.554688 9.234375 -5.175781 9.234375 -5.875 C 9.234375 -6.582031 9.128906 -7.203125 8.921875 -7.734375 C 8.722656 -8.273438 8.429688 -8.695312 8.046875 -9 C 7.671875 -9.3125 7.203125 -9.46875 6.640625 -9.46875 C 6.085938 -9.46875 5.617188 -9.3125 5.234375 -9 C 4.847656 -8.695312 4.554688 -8.273438 4.359375 -7.734375 C 4.160156 -7.203125 4.0625 -6.582031 4.0625 -5.875 C 4.0625 -5.175781 4.160156 -4.554688 4.359375 -4.015625 C 4.554688 -3.484375 4.84375 -3.0625 5.21875 -2.75 C 5.601562 -2.445312 6.078125 -2.296875 6.640625 -2.296875 Z M 6.640625 -2.296875 "/></g></g></g><g fill="#041242" fill-opacity="1"><g transform="translate(184.49695, 21.340142)"><g/></g></g><g fill="#041242" fill-opacity="1"><g transform="translate(189.579884, 21.340142)"><g><path d="M 1.3125 0 L 1.3125 -11.8125 L 4.5 -11.8125 L 4.5 0 Z M 2.90625 -13.34375 C 2.414062 -13.34375 1.992188 -13.503906 1.640625 -13.828125 C 1.296875 -14.148438 1.125 -14.539062 1.125 -15 C 1.125 -15.46875 1.296875 -15.863281 1.640625 -16.1875 C 1.992188 -16.507812 2.414062 -16.671875 2.90625 -16.671875 C 3.394531 -16.671875 3.8125 -16.507812 4.15625 -16.1875 C 4.5 -15.863281 4.671875 -15.46875 4.671875 -15 C 4.671875 -14.539062 4.5 -14.148438 4.15625 -13.828125 C 3.8125 -13.503906 3.394531 -13.34375 2.90625 -13.34375 Z M 2.90625 -13.34375 "/></g></g></g><g fill="#041242" fill-opacity="1"><g transform="translate(195.401171, 21.340142)"><g><path d="M 4.5 -6.78125 L 4.5 0 L 1.3125 0 L 1.3125 -11.8125 L 4.359375 -11.8125 L 4.40625 -8.84375 L 4.125 -8.84375 C 4.445312 -9.84375 4.929688 -10.613281 5.578125 -11.15625 C 6.222656 -11.707031 7.054688 -11.984375 8.078125 -11.984375 C 8.890625 -11.984375 9.601562 -11.804688 10.21875 -11.453125 C 10.832031 -11.097656 11.304688 -10.582031 11.640625 -9.90625 C 11.984375 -9.238281 12.15625 -8.4375 12.15625 -7.5 L 12.15625 0 L 8.953125 0 L 8.953125 -6.921875 C 8.953125 -7.671875 8.765625 -8.253906 8.390625 -8.671875 C 8.015625 -9.085938 7.488281 -9.296875 6.8125 -9.296875 C 6.363281 -9.296875 5.960938 -9.195312 5.609375 -9 C 5.265625 -8.8125 4.992188 -8.53125 4.796875 -8.15625 C 4.597656 -7.78125 4.5 -7.320312 4.5 -6.78125 Z M 4.5 -6.78125 "/></g></g></g><g fill="#041242" fill-opacity="1"><g transform="translate(208.862899, 21.340142)"><g><path d="M 7.375 -11.8125 L 7.375 -9.359375 L 0.203125 -9.359375 L 0.203125 -11.8125 Z M 1.921875 -14.71875 L 5.109375 -14.71875 L 5.109375 -3.5 C 5.109375 -3.125 5.191406 -2.847656 5.359375 -2.671875 C 5.535156 -2.492188 5.816406 -2.40625 6.203125 -2.40625 C 6.347656 -2.40625 6.53125 -2.414062 6.75 -2.4375 C 6.976562 -2.46875 7.15625 -2.492188 7.28125 -2.515625 L 7.625 -0.078125 C 7.3125 -0.00390625 6.976562 0.046875 6.625 0.078125 C 6.269531 0.109375 5.929688 0.125 5.609375 0.125 C 4.398438 0.125 3.484375 -0.148438 2.859375 -0.703125 C 2.234375 -1.265625 1.921875 -2.085938 1.921875 -3.171875 Z M 1.921875 -14.71875 "/></g></g></g><g fill="#041242" fill-opacity="1"><g transform="translate(216.695939, 21.340142)"><g><path d="M 6.671875 0.234375 C 5.460938 0.234375 4.421875 -0.015625 3.546875 -0.515625 C 2.671875 -1.015625 1.992188 -1.71875 1.515625 -2.625 C 1.046875 -3.539062 0.8125 -4.617188 0.8125 -5.859375 C 0.8125 -7.078125 1.046875 -8.144531 1.515625 -9.0625 C 1.984375 -9.976562 2.644531 -10.691406 3.5 -11.203125 C 4.363281 -11.722656 5.367188 -11.984375 6.515625 -11.984375 C 7.304688 -11.984375 8.039062 -11.851562 8.71875 -11.59375 C 9.394531 -11.34375 9.988281 -10.960938 10.5 -10.453125 C 11.007812 -9.953125 11.40625 -9.328125 11.6875 -8.578125 C 11.96875 -7.828125 12.109375 -6.957031 12.109375 -5.96875 L 12.109375 -5.078125 L 2.09375 -5.078125 L 2.09375 -7.09375 L 10.5625 -7.09375 L 9.078125 -6.578125 C 9.078125 -7.191406 8.976562 -7.722656 8.78125 -8.171875 C 8.59375 -8.617188 8.3125 -8.960938 7.9375 -9.203125 C 7.5625 -9.453125 7.097656 -9.578125 6.546875 -9.578125 C 6.003906 -9.578125 5.539062 -9.453125 5.15625 -9.203125 C 4.769531 -8.953125 4.472656 -8.609375 4.265625 -8.171875 C 4.054688 -7.742188 3.953125 -7.242188 3.953125 -6.671875 L 3.953125 -5.265625 C 3.953125 -4.597656 4.066406 -4.03125 4.296875 -3.5625 C 4.523438 -3.101562 4.847656 -2.753906 5.265625 -2.515625 C 5.679688 -2.273438 6.171875 -2.15625 6.734375 -2.15625 C 7.109375 -2.15625 7.453125 -2.210938 7.765625 -2.328125 C 8.078125 -2.441406 8.34375 -2.601562 8.5625 -2.8125 C 8.78125 -3.019531 8.945312 -3.273438 9.0625 -3.578125 L 11.953125 -3.171875 C 11.765625 -2.484375 11.429688 -1.882812 10.953125 -1.375 C 10.472656 -0.863281 9.867188 -0.46875 9.140625 -0.1875 C 8.421875 0.09375 7.597656 0.234375 6.671875 0.234375 Z M 6.671875 0.234375 "/></g></g></g><g fill="#041242" fill-opacity="1"><g transform="translate(229.579818, 21.340142)"><g><path d="M 4.5 -15.953125 L 4.5 0 L 1.3125 0 L 1.3125 -15.953125 Z M 4.5 -15.953125 "/></g></g></g><g fill="#041242" fill-opacity="1"><g transform="translate(235.401105, 21.340142)"><g><path d="M 1.3125 0 L 1.3125 -11.8125 L 4.5 -11.8125 L 4.5 0 Z M 2.90625 -13.34375 C 2.414062 -13.34375 1.992188 -13.503906 1.640625 -13.828125 C 1.296875 -14.148438 1.125 -14.539062 1.125 -15 C 1.125 -15.46875 1.296875 -15.863281 1.640625 -16.1875 C 1.992188 -16.507812 2.414062 -16.671875 2.90625 -16.671875 C 3.394531 -16.671875 3.8125 -16.507812 4.15625 -16.1875 C 4.5 -15.863281 4.671875 -15.46875 4.671875 -15 C 4.671875 -14.539062 4.5 -14.148438 4.15625 -13.828125 C 3.8125 -13.503906 3.394531 -13.34375 2.90625 -13.34375 Z M 2.90625 -13.34375 "/></g></g></g><g fill="#041242" fill-opacity="1"><g transform="translate(241.222393, 21.340142)"><g><path d="M 6.640625 4.703125 C 5.617188 4.703125 4.738281 4.570312 4 4.3125 C 3.257812 4.050781 2.660156 3.6875 2.203125 3.21875 C 1.742188 2.75 1.4375 2.210938 1.28125 1.609375 L 4.09375 1.015625 C 4.195312 1.253906 4.351562 1.472656 4.5625 1.671875 C 4.769531 1.878906 5.039062 2.046875 5.375 2.171875 C 5.71875 2.304688 6.132812 2.375 6.625 2.375 C 7.425781 2.375 8.054688 2.179688 8.515625 1.796875 C 8.972656 1.410156 9.203125 0.816406 9.203125 0.015625 L 9.203125 -2.078125 L 9.015625 -2.078125 C 8.847656 -1.722656 8.617188 -1.394531 8.328125 -1.09375 C 8.046875 -0.800781 7.6875 -0.566406 7.25 -0.390625 C 6.820312 -0.210938 6.300781 -0.125 5.6875 -0.125 C 4.769531 -0.125 3.941406 -0.34375 3.203125 -0.78125 C 2.472656 -1.21875 1.890625 -1.867188 1.453125 -2.734375 C 1.023438 -3.597656 0.8125 -4.664062 0.8125 -5.9375 C 0.8125 -7.25 1.03125 -8.351562 1.46875 -9.25 C 1.90625 -10.144531 2.488281 -10.820312 3.21875 -11.28125 C 3.957031 -11.75 4.78125 -11.984375 5.6875 -11.984375 C 6.320312 -11.984375 6.859375 -11.878906 7.296875 -11.671875 C 7.742188 -11.472656 8.113281 -11.210938 8.40625 -10.890625 C 8.707031 -10.566406 8.945312 -10.234375 9.125 -9.890625 L 9.21875 -9.890625 L 9.21875 -11.8125 L 12.375 -11.8125 L 12.375 -0.171875 C 12.375 0.929688 12.125 1.84375 11.625 2.5625 C 11.132812 3.289062 10.457031 3.828125 9.59375 4.171875 C 8.738281 4.523438 7.753906 4.703125 6.640625 4.703125 Z M 6.640625 -2.59375 C 7.191406 -2.59375 7.660156 -2.726562 8.046875 -3 C 8.429688 -3.269531 8.722656 -3.65625 8.921875 -4.15625 C 9.128906 -4.65625 9.234375 -5.257812 9.234375 -5.96875 C 9.234375 -6.664062 9.128906 -7.273438 8.921875 -7.796875 C 8.722656 -8.316406 8.429688 -8.71875 8.046875 -9 C 7.660156 -9.289062 7.191406 -9.4375 6.640625 -9.4375 C 6.097656 -9.4375 5.632812 -9.285156 5.25 -8.984375 C 4.863281 -8.691406 4.570312 -8.285156 4.375 -7.765625 C 4.1875 -7.253906 4.09375 -6.65625 4.09375 -5.96875 C 4.09375 -5.28125 4.191406 -4.679688 4.390625 -4.171875 C 4.585938 -3.660156 4.875 -3.269531 5.25 -3 C 5.632812 -2.726562 6.097656 -2.59375 6.640625 -2.59375 Z M 6.640625 -2.59375 "/></g></g></g><g fill="#041242" fill-opacity="1"><g transform="translate(254.898138, 21.340142)"><g><path d="M 6.671875 0.234375 C 5.460938 0.234375 4.421875 -0.015625 3.546875 -0.515625 C 2.671875 -1.015625 1.992188 -1.71875 1.515625 -2.625 C 1.046875 -3.539062 0.8125 -4.617188 0.8125 -5.859375 C 0.8125 -7.078125 1.046875 -8.144531 1.515625 -9.0625 C 1.984375 -9.976562 2.644531 -10.691406 3.5 -11.203125 C 4.363281 -11.722656 5.367188 -11.984375 6.515625 -11.984375 C 7.304688 -11.984375 8.039062 -11.851562 8.71875 -11.59375 C 9.394531 -11.34375 9.988281 -10.960938 10.5 -10.453125 C 11.007812 -9.953125 11.40625 -9.328125 11.6875 -8.578125 C 11.96875 -7.828125 12.109375 -6.957031 12.109375 -5.96875 L 12.109375 -5.078125 L 2.09375 -5.078125 L 2.09375 -7.09375 L 10.5625 -7.09375 L 9.078125 -6.578125 C 9.078125 -7.191406 8.976562 -7.722656 8.78125 -8.171875 C 8.59375 -8.617188 8.3125 -8.960938 7.9375 -9.203125 C 7.5625 -9.453125 7.097656 -9.578125 6.546875 -9.578125 C 6.003906 -9.578125 5.539062 -9.453125 5.15625 -9.203125 C 4.769531 -8.953125 4.472656 -8.609375 4.265625 -8.171875 C 4.054688 -7.742188 3.953125 -7.242188 3.953125 -6.671875 L 3.953125 -5.265625 C 3.953125 -4.597656 4.066406 -4.03125 4.296875 -3.5625 C 4.523438 -3.101562 4.847656 -2.753906 5.265625 -2.515625 C 5.679688 -2.273438 6.171875 -2.15625 6.734375 -2.15625 C 7.109375 -2.15625 7.453125 -2.210938 7.765625 -2.328125 C 8.078125 -2.441406 8.34375 -2.601562 8.5625 -2.8125 C 8.78125 -3.019531 8.945312 -3.273438 9.0625 -3.578125 L 11.953125 -3.171875 C 11.765625 -2.484375 11.429688 -1.882812 10.953125 -1.375 C 10.472656 -0.863281 9.867188 -0.46875 9.140625 -0.1875 C 8.421875 0.09375 7.597656 0.234375 6.671875 0.234375 Z M 6.671875 0.234375 "/></g></g></g><g fill="#041242" fill-opacity="1"><g transform="translate(267.782001, 21.340142)"><g><path d="M 4.5 -6.78125 L 4.5 0 L 1.3125 0 L 1.3125 -11.8125 L 4.359375 -11.8125 L 4.40625 -8.84375 L 4.125 -8.84375 C 4.445312 -9.84375 4.929688 -10.613281 5.578125 -11.15625 C 6.222656 -11.707031 7.054688 -11.984375 8.078125 -11.984375 C 8.890625 -11.984375 9.601562 -11.804688 10.21875 -11.453125 C 10.832031 -11.097656 11.304688 -10.582031 11.640625 -9.90625 C 11.984375 -9.238281 12.15625 -8.4375 12.15625 -7.5 L 12.15625 0 L 8.953125 0 L 8.953125 -6.921875 C 8.953125 -7.671875 8.765625 -8.253906 8.390625 -8.671875 C 8.015625 -9.085938 7.488281 -9.296875 6.8125 -9.296875 C 6.363281 -9.296875 5.960938 -9.195312 5.609375 -9 C 5.265625 -8.8125 4.992188 -8.53125 4.796875 -8.15625 C 4.597656 -7.78125 4.5 -7.320312 4.5 -6.78125 Z M 4.5 -6.78125 "/></g></g></g><g fill="#041242" fill-opacity="1"><g transform="translate(281.243744, 21.340142)"><g><path d="M 7.375 -11.8125 L 7.375 -9.359375 L 0.203125 -9.359375 L 0.203125 -11.8125 Z M 1.921875 -14.71875 L 5.109375 -14.71875 L 5.109375 -3.5 C 5.109375 -3.125 5.191406 -2.847656 5.359375 -2.671875 C 5.535156 -2.492188 5.816406 -2.40625 6.203125 -2.40625 C 6.347656 -2.40625 6.53125 -2.414062 6.75 -2.4375 C 6.976562 -2.46875 7.15625 -2.492188 7.28125 -2.515625 L 7.625 -0.078125 C 7.3125 -0.00390625 6.976562 0.046875 6.625 0.078125 C 6.269531 0.109375 5.929688 0.125 5.609375 0.125 C 4.398438 0.125 3.484375 -0.148438 2.859375 -0.703125 C 2.234375 -1.265625 1.921875 -2.085938 1.921875 -3.171875 Z M 1.921875 -14.71875 "/></g></g></g><g fill="#041242" fill-opacity="1"><g transform="translate(289.0768, 21.340142)"><g><path d="M 6.671875 0.234375 C 5.460938 0.234375 4.421875 -0.015625 3.546875 -0.515625 C 2.671875 -1.015625 1.992188 -1.71875 1.515625 -2.625 C 1.046875 -3.539062 0.8125 -4.617188 0.8125 -5.859375 C 0.8125 -7.078125 1.046875 -8.144531 1.515625 -9.0625 C 1.984375 -9.976562 2.644531 -10.691406 3.5 -11.203125 C 4.363281 -11.722656 5.367188 -11.984375 6.515625 -11.984375 C 7.304688 -11.984375 8.039062 -11.851562 8.71875 -11.59375 C 9.394531 -11.34375 9.988281 -10.960938 10.5 -10.453125 C 11.007812 -9.953125 11.40625 -9.328125 11.6875 -8.578125 C 11.96875 -7.828125 12.109375 -6.957031 12.109375 -5.96875 L 12.109375 -5.078125 L 2.09375 -5.078125 L 2.09375 -7.09375 L 10.5625 -7.09375 L 9.078125 -6.578125 C 9.078125 -7.191406 8.976562 -7.722656 8.78125 -8.171875 C 8.59375 -8.617188 8.3125 -8.960938 7.9375 -9.203125 C 7.5625 -9.453125 7.097656 -9.578125 6.546875 -9.578125 C 6.003906 -9.578125 5.539062 -9.453125 5.15625 -9.203125 C 4.769531 -8.953125 4.472656 -8.609375 4.265625 -8.171875 C 4.054688 -7.742188 3.953125 -7.242188 3.953125 -6.671875 L 3.953125 -5.265625 C 3.953125 -4.597656 4.066406 -4.03125 4.296875 -3.5625 C 4.523438 -3.101562 4.847656 -2.753906 5.265625 -2.515625 C 5.679688 -2.273438 6.171875 -2.15625 6.734375 -2.15625 C 7.109375 -2.15625 7.453125 -2.210938 7.765625 -2.328125 C 8.078125 -2.441406 8.34375 -2.601562 8.5625 -2.8125 C 8.78125 -3.019531 8.945312 -3.273438 9.0625 -3.578125 L 11.953125 -3.171875 C 11.765625 -2.484375 11.429688 -1.882812 10.953125 -1.375 C 10.472656 -0.863281 9.867188 -0.46875 9.140625 -0.1875 C 8.421875 0.09375 7.597656 0.234375 6.671875 0.234375 Z M 6.671875 0.234375 "/></g></g></g></g></g></svg>