<svg xmlns="http://www.w3.org/2000/svg" xmlns:xlink="http://www.w3.org/1999/xlink" width="500" zoomAndPan="magnify" viewBox="0 0 375 374.999991" height="500" preserveAspectRatio="xMidYMid meet" version="1.0"><defs><g/><clipPath id="a9e6b1a821"><path d="M 42.507812 3.390625 L 344.757812 3.390625 L 344.757812 365.640625 L 42.507812 365.640625 Z M 42.507812 3.390625 " clip-rule="nonzero"/></clipPath><clipPath id="72659827be"><rect x="0" width="70" y="0" height="50"/></clipPath></defs><g clip-path="url(#a9e6b1a821)"><path fill="#092030" d="M 254.011719 180.667969 C 279.710938 166.90625 296.019531 147.835938 297.996094 117.929688 C 298.449219 111.152344 297.726562 104.957031 295.851562 99.378906 C 294.160156 94.324219 295.199219 93.652344 299.035156 97.371094 C 314.335938 112.207031 324.902344 128.496094 330.746094 146.226562 C 343.570312 185.222656 341.007812 222.242188 323.160156 257.285156 C 318.371094 266.695312 313.28125 276.855469 305.914062 284.558594 C 305.078125 285.429688 305.160156 285.546875 306.164062 284.84375 C 321.101562 274.546875 333.1875 261.335938 342.148438 245.0625 C 342.449219 244.527344 343.101562 244.308594 343.671875 244.542969 C 344.140625 244.742188 344.339844 245.128906 344.222656 245.632812 C 342.648438 253.183594 341.042969 260.648438 339.199219 268.015625 C 330.945312 300.832031 308.394531 326.683594 279.894531 345.621094 C 261.480469 357.875 240.414062 364.441406 216.691406 365.210938 C 213.039062 365.328125 212.941406 364.757812 216.355469 363.484375 C 237.46875 355.632812 253.894531 341.316406 265.613281 320.4375 C 269.851562 312.90625 272.5625 305.136719 273.769531 297.132812 C 279.308594 260.53125 268.796875 230.144531 242.324219 205.867188 C 240.332031 204.042969 240.0625 204.226562 241.570312 206.484375 C 252.453125 222.945312 259.050781 247.273438 251.632812 265.757812 C 246.996094 277.308594 239.109375 285.914062 228.175781 291.992188 C 227.859375 292.160156 227.523438 291.773438 227.757812 291.472656 C 241.972656 272.957031 240.800781 245.796875 231.742188 225.371094 C 225.144531 210.503906 214.195312 194.429688 210.53125 179.761719 C 205.289062 158.816406 209.105469 139.246094 222.015625 121.027344 C 225.011719 116.808594 228.496094 113.109375 232.460938 109.976562 C 234.722656 108.203125 234.539062 107.917969 231.925781 109.109375 C 187.324219 129.402344 169.105469 178.15625 191.089844 222.222656 C 194.472656 229.003906 198.105469 234.964844 201.972656 240.089844 C 203.882812 242.617188 203.445312 243.136719 200.652344 241.628906 C 185.683594 233.574219 174.28125 222.054688 166.34375 207.15625 C 164.789062 204.226562 164.652344 201.078125 163.546875 198.046875 C 162.980469 196.488281 162.609375 196.523438 162.460938 198.199219 C 161.789062 205.28125 161.304688 212.34375 161.003906 219.34375 C 160.449219 232.320312 155.261719 243.738281 150.890625 255.761719 C 143.304688 276.707031 147.308594 293.902344 162.878906 307.328125 C 163.832031 308.148438 163.699219 308.433594 162.476562 308.148438 C 149.734375 305.1875 135.320312 297.636719 131.835938 284.640625 C 127.75 269.421875 130.328125 256.445312 139.503906 245.730469 C 141.496094 243.402344 141.214844 243.070312 138.632812 244.742188 C 111.746094 262.191406 104.714844 297.132812 121.15625 324.457031 C 132.757812 343.746094 149.433594 357.40625 171.300781 365.160156 C 172.253906 365.496094 172.222656 365.660156 171.214844 365.644531 C 144.996094 365.261719 121.65625 357.894531 101.246094 342.992188 C 79.230469 326.917969 60.613281 302.808594 51.101562 276.890625 C 43.046875 254.941406 40.921875 231.28125 44.65625 205.949219 C 49.359375 174.039062 65.03125 147.5 93.195312 130.855469 C 96.476562 128.914062 97.128906 129.550781 95.101562 132.800781 C 84.351562 149.945312 85.84375 176.515625 93.964844 193.140625 C 100.023438 205.546875 108.699219 215.777344 119.964844 223.882812 C 120.871094 224.535156 121.019531 224.367188 120.417969 223.464844 C 95.988281 186.191406 103.070312 140.953125 136.542969 112.441406 C 143.65625 106.378906 150.941406 100.316406 158.40625 94.238281 C 174.011719 81.546875 183.339844 60.367188 169.742188 42.320312 C 156.882812 25.257812 133.292969 17.941406 113.371094 21.925781 C 110.320312 22.53125 110.085938 21.976562 112.648438 20.203125 C 127.867188 9.871094 145.414062 4.144531 164.015625 3.476562 C 213.742188 1.667969 260.925781 32.007812 275.84375 80.191406 C 283.628906 105.339844 278.941406 137.921875 268.226562 161.714844 C 264.894531 169.113281 260.054688 175.308594 253.777344 180.300781 C 252.453125 181.355469 252.554688 181.472656 254.027344 180.683594 Z M 254.011719 180.667969 " fill-opacity="1" fill-rule="nonzero"/></g><g transform="matrix(1, 0, 0, 1, 161, 300)"><g clip-path="url(#72659827be)"><g fill="#ffffff" fill-opacity="1"><g transform="translate(0.473192, 31.093746)"><g><path d="M 10.15625 2.515625 C 7.300781 2.515625 5.09375 1.753906 3.53125 0.234375 C 1.976562 -1.285156 1.203125 -3.257812 1.203125 -5.6875 C 1.203125 -7.894531 1.75 -10.054688 2.84375 -12.171875 C 3.9375 -14.285156 5.320312 -16.226562 7 -18 C 8.363281 -19.445312 9.925781 -20.695312 11.6875 -21.75 C 13.445312 -22.8125 15.300781 -23.632812 17.25 -24.21875 C 19.195312 -24.8125 21.097656 -25.109375 22.953125 -25.109375 C 24.421875 -25.109375 25.742188 -24.910156 26.921875 -24.515625 C 28.109375 -24.117188 29.050781 -23.492188 29.75 -22.640625 C 30.445312 -21.796875 30.796875 -20.691406 30.796875 -19.328125 C 30.796875 -18.109375 30.503906 -16.976562 29.921875 -15.9375 C 29.347656 -14.894531 28.578125 -13.988281 27.609375 -13.21875 C 26.640625 -12.445312 25.578125 -11.835938 24.421875 -11.390625 C 23.265625 -10.953125 22.09375 -10.734375 20.90625 -10.734375 C 19.363281 -10.734375 18.0625 -11.085938 17 -11.796875 C 15.945312 -12.515625 15.421875 -13.410156 15.421875 -14.484375 C 15.421875 -15.878906 16.304688 -17.25 18.078125 -18.59375 C 18.390625 -18.820312 18.632812 -18.9375 18.8125 -18.9375 C 18.945312 -18.9375 19.015625 -18.882812 19.015625 -18.78125 C 19.015625 -18.519531 18.804688 -18.3125 18.390625 -18.15625 C 16.953125 -17 16.234375 -15.828125 16.234375 -14.640625 C 16.234375 -13.796875 16.617188 -13.082031 17.390625 -12.5 C 18.160156 -11.914062 19.125 -11.625 20.28125 -11.625 C 21.3125 -11.625 22.347656 -11.84375 23.390625 -12.28125 C 24.441406 -12.71875 25.40625 -13.3125 26.28125 -14.0625 C 27.15625 -14.8125 27.851562 -15.65625 28.375 -16.59375 C 28.90625 -17.53125 29.171875 -18.515625 29.171875 -19.546875 C 29.171875 -21.222656 28.601562 -22.445312 27.46875 -23.21875 C 26.332031 -23.988281 24.890625 -24.375 23.140625 -24.375 C 21.160156 -24.375 19.195312 -24 17.25 -23.25 C 15.300781 -22.507812 13.476562 -21.484375 11.78125 -20.171875 C 10.082031 -18.859375 8.5625 -17.351562 7.21875 -15.65625 C 4.539062 -12.28125 3.203125 -9.109375 3.203125 -6.140625 C 3.203125 -4.566406 3.5625 -3.234375 4.28125 -2.140625 C 5.007812 -1.046875 6.007812 -0.21875 7.28125 0.34375 C 8.5625 0.914062 10.023438 1.203125 11.671875 1.203125 C 14.117188 1.203125 16.488281 0.664062 18.78125 -0.40625 C 21.070312 -1.476562 23.03125 -2.914062 24.65625 -4.71875 C 25.09375 -5.175781 25.414062 -5.40625 25.625 -5.40625 C 25.769531 -5.40625 25.84375 -5.289062 25.84375 -5.0625 C 25.84375 -4.75 25.703125 -4.453125 25.421875 -4.171875 C 24.546875 -3.242188 23.503906 -2.378906 22.296875 -1.578125 C 21.085938 -0.785156 19.789062 -0.0820312 18.40625 0.53125 C 17.03125 1.15625 15.632812 1.640625 14.21875 1.984375 C 12.800781 2.335938 11.445312 2.515625 10.15625 2.515625 Z M 10.15625 2.515625 "/></g></g></g><g fill="#ffffff" fill-opacity="1"><g transform="translate(28.52512, 31.093746)"><g><path d="M 8.546875 -13.296875 C 8.097656 -13.296875 7.710938 -13.4375 7.390625 -13.71875 C 7.078125 -14 6.921875 -14.320312 6.921875 -14.6875 C 6.921875 -15.40625 7.410156 -15.765625 8.390625 -15.765625 C 8.742188 -15.765625 9.101562 -15.640625 9.46875 -15.390625 C 9.832031 -15.148438 10.015625 -14.847656 10.015625 -14.484375 C 10.015625 -14.179688 9.84375 -13.90625 9.5 -13.65625 C 9.164062 -13.414062 8.847656 -13.296875 8.546875 -13.296875 Z M 1.390625 0.421875 C 0.828125 0.421875 0.359375 0.234375 -0.015625 -0.140625 C -0.390625 -0.515625 -0.578125 -1.175781 -0.578125 -2.125 C -0.578125 -2.664062 -0.453125 -3.289062 -0.203125 -4 C 0.0351562 -4.707031 0.34375 -5.421875 0.71875 -6.140625 C 1.09375 -6.859375 1.457031 -7.503906 1.8125 -8.078125 C 3.257812 -10.421875 4.445312 -11.601562 5.375 -11.625 C 5.601562 -11.625 5.882812 -11.523438 6.21875 -11.328125 C 6.550781 -11.140625 6.71875 -10.929688 6.71875 -10.703125 C 6.71875 -10.703125 5.738281 -9.441406 3.78125 -6.921875 C 1.851562 -4.421875 0.890625 -2.640625 0.890625 -1.578125 C 0.890625 -0.753906 1.210938 -0.34375 1.859375 -0.34375 C 2.265625 -0.34375 2.796875 -0.515625 3.453125 -0.859375 C 4.109375 -1.210938 4.796875 -1.660156 5.515625 -2.203125 C 6.242188 -2.742188 6.9375 -3.320312 7.59375 -3.9375 C 8.25 -4.5625 8.785156 -5.128906 9.203125 -5.640625 C 9.453125 -5.972656 9.671875 -6.203125 9.859375 -6.328125 C 10.054688 -6.460938 10.179688 -6.53125 10.234375 -6.53125 C 10.335938 -6.53125 10.390625 -6.453125 10.390625 -6.296875 C 10.390625 -6.171875 10.238281 -5.914062 9.9375 -5.53125 C 9.644531 -5.144531 9.242188 -4.691406 8.734375 -4.171875 C 8.117188 -3.554688 7.4375 -2.882812 6.6875 -2.15625 C 5.9375 -1.4375 5.125 -0.828125 4.25 -0.328125 C 3.375 0.171875 2.421875 0.421875 1.390625 0.421875 Z M 1.390625 0.421875 "/></g></g></g><g fill="#ffffff" fill-opacity="1"><g transform="translate(37.257536, 31.093746)"><g><path d="M 2.390625 0.234375 C 1.566406 0.234375 0.914062 0.0351562 0.4375 -0.359375 C -0.03125 -0.765625 -0.265625 -1.484375 -0.265625 -2.515625 C -0.265625 -3.109375 -0.0859375 -3.859375 0.265625 -4.765625 C 0.628906 -5.679688 1.082031 -6.664062 1.625 -7.71875 C 2.164062 -8.78125 2.707031 -9.828125 3.25 -10.859375 C 2.914062 -10.773438 2.617188 -10.734375 2.359375 -10.734375 C 1.585938 -10.734375 1.203125 -11.03125 1.203125 -11.625 C 1.203125 -11.914062 1.3125 -12.132812 1.53125 -12.28125 C 1.75 -12.4375 1.945312 -12.53125 2.125 -12.5625 C 2.125 -12.5625 2.15625 -12.5625 2.21875 -12.5625 C 2.28125 -12.5625 2.363281 -12.570312 2.46875 -12.59375 L 4.71875 -12.59375 C 5.175781 -13.1875 5.648438 -13.816406 6.140625 -14.484375 C 6.835938 -15.359375 7.394531 -15.875 7.8125 -16.03125 L 7.921875 -16.03125 C 8.097656 -16.03125 8.351562 -15.941406 8.6875 -15.765625 C 9.101562 -15.535156 9.3125 -15.300781 9.3125 -15.0625 C 9.3125 -14.726562 8.691406 -13.867188 7.453125 -12.484375 C 7.691406 -12.453125 8.03125 -12.4375 8.46875 -12.4375 C 8.90625 -12.4375 9.441406 -12.4375 10.078125 -12.4375 C 10.390625 -12.4375 10.832031 -12.4375 11.40625 -12.4375 C 11.988281 -12.4375 12.597656 -12.441406 13.234375 -12.453125 C 13.867188 -12.472656 14.414062 -12.488281 14.875 -12.5 C 15.34375 -12.507812 15.601562 -12.515625 15.65625 -12.515625 C 15.726562 -12.492188 15.765625 -12.457031 15.765625 -12.40625 C 15.765625 -12.175781 14.242188 -11.863281 11.203125 -11.46875 C 9.472656 -11.238281 8.148438 -11.054688 7.234375 -10.921875 C 6.328125 -10.796875 5.832031 -10.722656 5.75 -10.703125 C 5.394531 -10.390625 4.957031 -9.859375 4.4375 -9.109375 C 3.925781 -8.367188 3.410156 -7.535156 2.890625 -6.609375 C 2.378906 -5.679688 1.945312 -4.796875 1.59375 -3.953125 C 1.25 -3.117188 1.078125 -2.472656 1.078125 -2.015625 C 1.078125 -1.597656 1.234375 -1.253906 1.546875 -0.984375 C 1.859375 -0.710938 2.359375 -0.578125 3.046875 -0.578125 C 3.515625 -0.578125 4.070312 -0.679688 4.71875 -0.890625 C 5.363281 -1.097656 5.972656 -1.335938 6.546875 -1.609375 C 7.128906 -1.878906 7.550781 -2.085938 7.8125 -2.234375 C 8.476562 -2.648438 9.21875 -3.195312 10.03125 -3.875 C 10.84375 -4.5625 11.644531 -5.34375 12.4375 -6.21875 C 12.800781 -6.582031 13.046875 -6.765625 13.171875 -6.765625 C 13.253906 -6.765625 13.296875 -6.710938 13.296875 -6.609375 C 13.296875 -6.398438 13.101562 -6.066406 12.71875 -5.609375 C 12.09375 -4.859375 11.398438 -4.140625 10.640625 -3.453125 C 9.878906 -2.773438 9.035156 -2.148438 8.109375 -1.578125 C 7.054688 -0.941406 6.046875 -0.476562 5.078125 -0.1875 C 4.109375 0.09375 3.210938 0.234375 2.390625 0.234375 Z M 2.390625 0.234375 "/></g></g></g><g fill="#ffffff" fill-opacity="1"><g transform="translate(48.733312, 31.093746)"><g><path d="M 2.59375 0.1875 C 1.96875 0.1875 1.347656 -0.03125 0.734375 -0.46875 C 0.117188 -0.90625 -0.226562 -1.421875 -0.3125 -2.015625 C -0.570312 -3.992188 0.675781 -6.347656 3.4375 -9.078125 C 6.164062 -11.804688 8.625 -13.171875 10.8125 -13.171875 C 11.40625 -13.171875 11.867188 -13.03125 12.203125 -12.75 C 12.390625 -12.570312 12.523438 -12.328125 12.609375 -12.015625 C 12.703125 -11.703125 12.773438 -11.546875 12.828125 -11.546875 C 12.929688 -11.546875 13.019531 -11.566406 13.09375 -11.609375 C 13.175781 -11.648438 13.269531 -11.671875 13.375 -11.671875 C 13.675781 -11.671875 13.941406 -11.550781 14.171875 -11.3125 C 14.410156 -11.082031 14.539062 -10.878906 14.5625 -10.703125 C 14.59375 -10.648438 13.769531 -9.375 12.09375 -6.875 C 10.414062 -4.425781 9.65625 -2.765625 9.8125 -1.890625 C 9.945312 -1.296875 10.234375 -1 10.671875 -1 C 12.003906 -1 14.445312 -3.21875 18 -7.65625 C 18.082031 -7.757812 18.160156 -7.8125 18.234375 -7.8125 C 18.367188 -7.8125 18.4375 -7.71875 18.4375 -7.53125 C 18.4375 -7.320312 18.316406 -7.066406 18.078125 -6.765625 C 14.804688 -2.359375 12.296875 -0.15625 10.546875 -0.15625 C 10.316406 -0.15625 10.097656 -0.191406 9.890625 -0.265625 C 8.753906 -0.703125 8.1875 -1.554688 8.1875 -2.828125 C 8.1875 -3.265625 8.238281 -3.703125 8.34375 -4.140625 L 5.953125 -1.8125 C 5.234375 -1.09375 4.582031 -0.578125 4 -0.265625 C 3.414062 0.0351562 2.945312 0.1875 2.59375 0.1875 Z M 2.234375 -0.65625 C 3.734375 -0.65625 5.769531 -2.289062 8.34375 -5.5625 L 12.4375 -11.203125 C 12.238281 -11.566406 11.90625 -11.75 11.4375 -11.75 C 9.863281 -11.75 7.738281 -10.484375 5.0625 -7.953125 C 2.28125 -5.378906 1.03125 -3.253906 1.3125 -1.578125 C 1.4375 -0.960938 1.742188 -0.65625 2.234375 -0.65625 Z M 2.234375 -0.65625 "/></g></g></g></g></g></svg>